<?xml version="1.0" encoding="UTF-8" standalone="no"?>
<svg
   xmlns:dc="http://purl.org/dc/elements/1.1/"
   xmlns:cc="http://creativecommons.org/ns#"
   xmlns:rdf="http://www.w3.org/1999/02/22-rdf-syntax-ns#"
   xmlns:svg="http://www.w3.org/2000/svg"
   xmlns="http://www.w3.org/2000/svg"
   viewBox="0 0 1160.3199 832.02667"
   height="832.02667"
   width="1160.3199"
   xml:space="preserve"
   id="svg2"
   version="1.1"><metadata
     id="metadata8"><rdf:RDF><cc:Work
         rdf:about=""><dc:format>image/svg+xml</dc:format><dc:type
           rdf:resource="http://purl.org/dc/dcmitype/StillImage" /></cc:Work></rdf:RDF></metadata><defs
     id="defs6" /><g
     transform="matrix(1.3333333,0,0,-1.3333333,0,832.02667)"
     id="g10"><g
       transform="scale(0.1)"
       id="g12"><path
         id="path14"
         style="fill:#f8f9f9;fill-opacity:1;fill-rule:nonzero;stroke:none"
         d="M 0,4 H 8702.36 V 6240.22 H 0 V 4" /><path
         id="path18"
         style="fill:#b11d23;fill-opacity:1;fill-rule:nonzero;stroke:none"
         d="m 8105.27,2320.82 v 599.34 L 7412.6,2642.64 Z" /><path
         id="path20"
         style="fill:#cc1e25;fill-opacity:1;fill-rule:nonzero;stroke:none"
         d="m 7412.6,2001.12 v 434.44 l 502.08,-201.16 z" /><path
         id="path22"
         style="fill:#cb1e25;fill-opacity:1;fill-rule:nonzero;stroke:none"
         d="m 8209.02,2469.07 v 302.84 l 350,-140.23 z" /><path
         id="path24"
         style="fill:#b11d23;fill-opacity:1;fill-rule:nonzero;stroke:none"
         d="m 597.09,3923.4 v -599.35 l 692.68,277.52 z" /><path
         id="path26"
         style="fill:#cc1e25;fill-opacity:1;fill-rule:nonzero;stroke:none"
         d="M 1289.77,4243.1 V 3808.66 L 787.68,4009.82 Z" /><path
         id="path28"
         style="fill:#cb1e25;fill-opacity:1;fill-rule:nonzero;stroke:none"
         d="m 493.344,3775.15 v -302.84 l -350,140.22 z" /><g
         transform="scale(10)"
         id="g58">
</g><path
         id="path76"
         style="fill:#dc1d25;fill-opacity:1;fill-rule:nonzero;stroke:none"
         d="M 8702.36,2311.45 8010,1916.67 l 692.36,-460 z" /><path
         id="path78"
         style="fill:#e61d25;fill-opacity:1;fill-rule:nonzero;stroke:none"
         d="m 8010,1916.67 v -673.34 l 692.36,213.34 z" /><path
         id="path80"
         style="fill:#df1d25;fill-opacity:1;fill-rule:nonzero;stroke:none"
         d="M 8702.36,1456.67 V 923.328 L 8010,1243.33 Z" /><path
         id="path82"
         style="fill:#e41d25;fill-opacity:1;fill-rule:nonzero;stroke:none"
         d="M 8702.36,923.328 8010,635.012 v 608.318 z" /><path
         id="path84"
         style="fill:#c91e25;fill-opacity:1;fill-rule:nonzero;stroke:none"
         d="M 8702.36,923.328 V 216.672 L 8010,635.012 Z" /><path
         id="path86"
         style="fill:#cb1e25;fill-opacity:1;fill-rule:nonzero;stroke:none"
         d="M 8702.36,216.672 7901.81,4 8010,635.012 Z" /><path
         id="path88"
         style="fill:#c11e24;fill-opacity:1;fill-rule:nonzero;stroke:none"
         d="M 8702.36,216.672 V 0 l -800.55,4 z" /><path
         id="path90"
         style="fill:#d61e25;fill-opacity:1;fill-rule:nonzero;stroke:none"
         d="m 7901.81,4 -720,631.012 H 8010 Z" /><path
         id="path92"
         style="fill:#cb1e25;fill-opacity:1;fill-rule:nonzero;stroke:none"
         d="M 7181.81,635.012 6701.81,4 h 1200 z" /><path
         id="path94"
         style="fill:#cc1e25;fill-opacity:1;fill-rule:nonzero;stroke:none"
         d="m 6701.81,4 -400,631.012 h 880 z" /><path
         id="path96"
         style="fill:#b91d24;fill-opacity:1;fill-rule:nonzero;stroke:none"
         d="M 6301.81,635.012 5535.15,4 h 1166.66 z" /><path
         id="path98"
         style="fill:#bd1d24;fill-opacity:1;fill-rule:nonzero;stroke:none"
         d="M 5328.48,635.012 5535.15,4 6301.81,635.012 Z" /><path
         id="path100"
         style="fill:#aa1c22;fill-opacity:1;fill-rule:nonzero;stroke:none"
         d="M 5328.48,635.012 4677.12,4 h 858.03 z" /><path
         id="path102"
         style="fill:#ba1d24;fill-opacity:1;fill-rule:nonzero;stroke:none"
         d="M 5328.48,635.012 H 4175.15 L 4677.12,4 Z" /><path
         id="path104"
         style="fill:#c11e24;fill-opacity:1;fill-rule:nonzero;stroke:none"
         d="M 4175.15,635.012 3052.8,4 h 1624.32 z" /><path
         id="path106"
         style="fill:#dc1d25;fill-opacity:1;fill-rule:nonzero;stroke:none"
         d="M 9.07422,3928.77 701.438,4323.55 9.07422,4783.55 Z" /><path
         id="path108"
         style="fill:#e61d25;fill-opacity:1;fill-rule:nonzero;stroke:none"
         d="m 701.438,4323.55 v 673.34 L 9.07422,4783.55 Z" /><path
         id="path110"
         style="fill:#df1d25;fill-opacity:1;fill-rule:nonzero;stroke:none"
         d="m 9.07422,4783.55 v 533.34 l 692.36378,-320 z" /><path
         id="path112"
         style="fill:#e41d25;fill-opacity:1;fill-rule:nonzero;stroke:none"
         d="M 9.07422,5316.89 701.438,5605.21 v -608.32 z" /><path
         id="path114"
         style="fill:#c91e25;fill-opacity:1;fill-rule:nonzero;stroke:none"
         d="m 9.07422,5316.89 v 706.66 L 701.438,5605.21 Z" /><path
         id="path116"
         style="fill:#cb1e25;fill-opacity:1;fill-rule:nonzero;stroke:none"
         d="M 9.07422,6023.55 809.625,6236.22 701.438,5605.21 Z" /><path
         id="path118"
         style="fill:#c11e24;fill-opacity:1;fill-rule:nonzero;stroke:none"
         d="m 9.07422,6023.55 v 216.67 l 800.55078,-4 z" /><path
         id="path120"
         style="fill:#d61e25;fill-opacity:1;fill-rule:nonzero;stroke:none"
         d="M 809.625,6236.22 1529.62,5605.21 H 701.438 Z" /><path
         id="path122"
         style="fill:#cb1e25;fill-opacity:1;fill-rule:nonzero;stroke:none"
         d="m 1529.62,5605.21 480,631.01 H 809.625 Z" /><path
         id="path124"
         style="fill:#cc1e25;fill-opacity:1;fill-rule:nonzero;stroke:none"
         d="m 2009.62,6236.22 400,-631.01 h -880 z" /><path
         id="path126"
         style="fill:#b91d24;fill-opacity:1;fill-rule:nonzero;stroke:none"
         d="m 2409.62,5605.21 766.67,631.01 H 2009.62 Z" /><path
         id="path128"
         style="fill:#bd1d24;fill-opacity:1;fill-rule:nonzero;stroke:none"
         d="m 3382.96,5605.21 -206.67,631.01 -766.67,-631.01 z" /><path
         id="path130"
         style="fill:#aa1c22;fill-opacity:1;fill-rule:nonzero;stroke:none"
         d="m 3382.96,5605.21 651.36,631.01 h -858.03 z" /><path
         id="path132"
         style="fill:#ba1d24;fill-opacity:1;fill-rule:nonzero;stroke:none"
         d="m 3382.96,5605.21 h 1153.33 l -501.97,631.01 z" /><path
         id="path134"
         style="fill:#c11e24;fill-opacity:1;fill-rule:nonzero;stroke:none"
         d="m 4536.29,5605.21 1122.34,631.01 H 4034.32 Z" /><path
         id="path136"
         style="fill:#82171b;fill-opacity:1;fill-rule:nonzero;stroke:none"
         d="m 8025,4132.73 h -30 V 5595.37 H 6492.66 v 30 H 8010 c 8.28,0 15,-6.72 15,-15 V 4132.73" /><path
         id="path138"
         style="fill:#82171b;fill-opacity:1;fill-rule:nonzero;stroke:none"
         d="M 2209.7,618.852 H 692.359 c -8.285,0 -15,6.718 -15,15 V 2111.49 h 30 V 648.852 H 2209.7 v -30" /></g></g></svg>